# xmcd CD database file
#
# Track frame offsets:
#	150
#	30217
#	61749
#	94627
#	119993
#	148744
#	187335
#	197160
#	222525
#	251364
#	286728
#
# Disc length: 4198 seconds
#
# Revision: 0
# Processed by: cddbd v1.5PL3 Copyright (c) Steve Scherf et al.
# Submitted via: CDex 1.51
#
DISCID=a810640b
DTITLE=Mike Jackson - Certified Jazz Guitar Vol. 1
DYEAR=2000
DGENRE=Jazz
TTITLE0=Back At The Chicken Shack
TTITLE1=This Smoke Is Killin' Me
TTITLE2=I Can't Get Started
TTITLE3=Calypso Trane
TTITLE4=Cherokee
TTITLE5=In Your Own Sweet Way
TTITLE6=Everything Happens to Me
TTITLE7=Recordame
TTITLE8=High Fly
TTITLE9=The Way You Look Tonight
TTITLE10=SKJ
EXTD=YEAR: 2000
EXTT0=
EXTT1=
EXTT2=
EXTT3=
EXTT4=
EXTT5=
EXTT6=
EXTT7=
EXTT8=
EXTT9=
EXTT10=
PLAYORDER=
